#!OML:ASF H:\Dans Jumps\Project 1\Capture day 1\Session 1\subject.ASF
:FULLY-SPECIFIED
:DEGREES
479
root 0.551307 17.6376 5.11133 6.74352 0.665434 -2.02323
lowerback 1.74994 -0.236286 -0.00601008
upperback 2.68121 -0.346204 2.3479
thorax 1.78328 -0.198409 2.41402
lowerneck -13.9624 0.0868282 -1.43372
upperneck 13.2831 0.290024 0.780485
head 6.3271 0.131938 0.510704
rclavicle 4.17448e-015 -5.1684e-015
rhumerus -25.2941 -18.8316 -79.414
rradius 20.4605
rwrist 36.1609
rhand -21.0565 -26.4268
rfingers 7.12502
rthumb 5.31975 -56.34
lclavicle 4.17448e-015 -5.1684e-015
lhumerus -23.1822 -4.32584 94.2676
lradius 14.2157
lwrist 2.03053
lhand -26.4219 -5.64128
lfingers 7.12502
lthumb 0.138219 24.3384
rfemur -19.1111 -0.313175 20.922
rtibia 24.7852
rfoot -11.0546 -3.34704
rtoes 12.2274
lfemur -19.6807 4.93438 -18.0912
ltibia 23.9451
lfoot -9.2702 3.05792
ltoes -1.5345
480
root 0.548557 17.6374 5.12524 6.76402 0.746327 -2.0127
lowerback 1.7112 -0.222966 -0.0171027
upperback 2.66746 -0.328362 2.32357
thorax 1.78997 -0.18936 2.395
lowerneck -13.9532 0.0671295 -1.40343
upperneck 12.7995 0.262679 0.749114
head 6.17184 0.119162 0.491776
rclavicle 4.87022e-015 -1.59028e-014
rhumerus -25.1161 -18.8153 -79.4298
rradius 20.4564
rwrist 36.1024
rhand -21.0825 -26.5317
rfingers 7.12502
rthumb 5.29467 -56.4456
lclavicle 4.87022e-015 -1.59028e-014
lhumerus -23.3126 -3.57295 93.8996
lradius 14.0777
lwrist 1.84151
lhand -26.2818 -5.58054
lfingers 7.12502
lthumb 0.273613 24.399
rfemur -19.085 -0.315071 20.9208
rtibia 24.8075
rfoot -11.1037 -3.438
rtoes 12.1566
lfemur -19.6619 4.87441 -18.0895
ltibia 23.9423
lfoot -9.30277 3.0648
ltoes -1.61357
481
root 0.545711 17.6372 5.13879 6.78397 0.830866 -1.99916
lowerback 1.67627 -0.212383 -0.0292956
upperback 2.64842 -0.313985 2.29761
thorax 1.78924 -0.181978 2.37496
lowerneck -13.9526 0.0440507 -1.39667
upperneck 12.3427 0.232155 0.740147
head 6.02692 0.105384 0.483775
rclavicle -2.48481e-015 -5.56597e-015
rhumerus -24.9589 -18.776 -79.4542
rradius 20.4734
rwrist 36.0344
rhand -21.1047 -26.6386
rfingers 7.12502
rthumb 5.27328 -56.553
lclavicle -2.48481e-015 -5.56597e-015
lhumerus -23.4303 -2.75157 93.4904
lradius 13.9028
lwrist 1.32151
lhand -26.1042 -5.41156
lfingers 7.12502
lthumb 0.445095 24.5677
rfemur -19.0603 -0.322835 20.9174
rtibia 24.8332
rfoot -11.157 -3.52907
rtoes 12.0756
lfemur -19.6437 4.82032 -18.0914
ltibia 23.9397
lfoot -9.33721 3.06147
ltoes -1.69281
482
root 0.542701 17.637 5.15186 6.8022 0.914878 -1.98341
lowerback 1.64726 -0.203344 -0.0441692
upperback 2.62393 -0.301489 2.27153
thorax 1.77969 -0.175508 2.35633
lowerneck -13.965 0.0202633 -1.40975
upperneck 11.9165 0.202194 0.749117
head 5.89425 0.0922531 0.484956
rclavicle -2.5842e-015 1.19271e-014
rhumerus -24.8156 -18.7365 -79.4796
rradius 20.4944
rwrist 35.9849
rhand -21.1325 -26.7254
rfingers 7.12502
rthumb 5.2464 -56.6404
lclavicle -2.5842e-015 1.19271e-014
lhumerus -23.5304 -1.83454 93.0343
lradius 13.6726
lwrist 0.439574
lhand -25.97 -5.28129
lfingers 7.12502
lthumb 0.574703 24.6977
rfemur -19.035 -0.330871 20.9121
rtibia 24.8586
rfoot -11.2118 -3.61999
rtoes 11.9993
lfemur -19.6251 4.77462 -18.0954
ltibia 23.937
lfoot -9.37454 3.04934
ltoes -1.7595
483
root 0.539675 17.6369 5.16463 6.81697 1.00086 -1.96452
lowerback 1.62141 -0.19565 -0.0604319
upperback 2.59732 -0.290697 2.24454
thorax 1.76625 -0.169875 2.33757
lowerneck -13.9917 -0.00856567 -1.4385
upperneck 11.5222 0.167301 0.768735
head 5.77435 0.0767448 0.491784
rclavicle 1.09332e-015 -1.98785e-014
rhumerus -24.6787 -18.727 -79.5003
rradius 20.5093
rwrist 35.9732
rhand -21.1698 -26.7798
rfingers 7.12502
rthumb 5.21039 -56.6957
lclavicle 1.09332e-015 -1.98785e-014
lhumerus -23.6089 -0.841865 92.5381
lradius 13.3928
lwrist -0.73026
lhand -25.8764 -5.17279
lfingers 7.12502
lthumb 0.665139 24.8059
rfemur -19.0046 -0.348148 20.9038
rtibia 24.8806
rfoot -11.2651 -3.70527
rtoes 11.9238
lfemur -19.6024 4.73644 -18.1035
ltibia 23.9313
lfoot -9.41347 3.02594
ltoes -1.81563
484
root 0.536563 17.6369 5.17706 6.82766 1.08948 -1.95151
lowerback 1.59897 -0.189636 -0.070181
upperback 2.5705 -0.282108 2.21983
thorax 1.75078 -0.165237 2.3175
lowerneck -14.0272 -0.0369063 -1.46901
upperneck 11.1516 0.133697 0.787976
head 5.66364 0.0616879 0.499013
rclavicle -2.5842e-015 -8.34896e-015
rhumerus -24.5382 -18.7512 -79.5172
rradius 20.5076
rwrist 35.9991
rhand -21.2136 -26.812
rfingers 7.12502
rthumb 5.16814 -56.729
lclavicle -2.5842e-015 -8.34896e-015
lhumerus -23.6604 0.222707 92.0039
lradius 13.0558
lwrist -2.12969
lhand -25.9053 -5.22961
lfingers 7.12502
lthumb 0.63723 24.7492
rfemur -18.9674 -0.369181 20.9024
rtibia 24.8969
rfoot -11.3167 -3.78886
rtoes 11.8525
lfemur -19.5753 4.70449 -18.105
ltibia 23.9218
lfoot -9.45207 2.99312
ltoes -1.8633
485
root 0.533438 17.6371 5.18912 6.83499 1.18216 -1.93778
lowerback 1.57881 -0.185922 -0.0809155
upperback 2.54452 -0.276603 2.19671
thorax 1.73503 -0.162182 2.29964
lowerneck -14.0544 -0.0664538 -1.4851
upperneck 10.7874 0.0980979 0.788944
head 5.55385 0.0448512 0.498022
rclavicle 6.95746e-016 1.35174e-014
rhumerus -24.3982 -18.7998 -79.5307
rradius 20.4977
rwrist 36.0496
rhand -21.2604 -26.8203
rfingers 7.12502
rthumb 5.12291 -56.7384
lclavicle 6.95746e-016 1.35174e-014
lhumerus -23.6826 1.33425 91.4448
lradius 12.6963
lwrist -3.61368
lhand -25.8927 -5.19568
lfingers 7.12502
lthumb 0.649393 24.7831
rfemur -18.9232 -0.399347 20.9006
rtibia 24.9055
rfoot -11.3651 -3.8687
rtoes 11.7807
lfemur -19.5433 4.67457 -18.1072
ltibia 23.9059
lfoot -9.48981 2.95248
ltoes -1.89899
486
root 0.530265 17.6375 5.20088 6.83863 1.27889 -1.92815
lowerback 1.55967 -0.184993 -0.0881659
upperback 2.51992 -0.274855 2.17658
thorax 1.72029 -0.16099 2.28291
lowerneck -14.0887 -0.0936323 -1.49925
upperneck 10.4452 0.0658059 0.786917
head 5.45226 0.0294292 0.496186
rclavicle -1.09332e-015 -2.78299e-015
rhumerus -24.2581 -18.8463 -79.5489
rradius 20.4862
rwrist 36.0921
rhand -21.2966 -26.8231
rfingers 7.12502
rthumb 5.08798 -56.742
lclavicle -1.09332e-015 -2.78299e-015
lhumerus -23.6846 2.47098 90.8694
lradius 12.3284
lwrist -5.11262
lhand -25.9161 -5.22666
lfingers 7.12502
lthumb 0.626769 24.7522
rfemur -18.8705 -0.434697 20.9039
rtibia 24.905
rfoot -11.4083 -3.94764
rtoes 11.6942
lfemur -19.5062 4.64506 -18.1045
ltibia 23.8839
lfoot -9.52573 2.90727
ltoes -1.93585
487
root 0.526996 17.6381 5.21249 6.83906 1.37735 -1.91887
lowerback 1.53745 -0.186854 -0.0974598
upperback 2.49952 -0.276984 2.15906
thorax 1.7118 -0.161859 2.27001
lowerneck -14.1296 -0.119191 -1.5235
upperneck 10.1234 0.0366841 0.793152
head 5.35828 0.015716 0.498967
rclavicle -3.27995e-015 1.19271e-015
rhumerus -24.1115 -18.905 -79.5684
rradius 20.4664
rwrist 36.1444
rhand -21.3224 -26.8342
rfingers 7.12502
rthumb 5.06303 -56.7537
lclavicle -3.27995e-015 1.19271e-015
lhumerus -23.6603 3.61945 90.2857
lradius 11.9522
lwrist -6.59256
lhand -25.8149 -5.109
lfingers 7.12502
lthumb 0.724482 24.8695
rfemur -18.8108 -0.47315 20.9083
rtibia 24.8966
rfoot -11.4482 -4.02691
rtoes 11.5948
lfemur -19.4621 4.61779 -18.101
ltibia 23.8538
lfoot -9.55546 2.86438
ltoes -1.97803
488
root 0.523611 17.6389 5.22386 6.83814 1.47666 -1.9115
lowerback 1.51125 -0.191231 -0.106384
upperback 2.48258 -0.282599 2.14326
thorax 1.70924 -0.164536 2.25867
lowerneck -14.1954 -0.140555 -1.56394
upperneck 9.8397 0.0140538 0.820334
head 5.28038 0.00601401 0.511633
rclavicle 0 -1.82882e-014
rhumerus -23.9646 -18.9389 -79.6019
rradius 20.4569
rwrist 36.1683
rhand -21.3359 -26.8499
rfingers 7.12502
rthumb 5.05005 -56.7697
lclavicle 0 -1.82882e-014
lhumerus -23.6169 4.78038 89.6937
lradius 11.5762
lwrist -8.04806
lhand -25.6946 -5.01661
lfingers 7.12502
lthumb 0.840752 24.9615
rfemur -18.7463 -0.510662 20.9154
rtibia 24.8808
rfoot -11.4852 -4.10737
rtoes 11.4917
lfemur -19.4142 4.59106 -18.0947
ltibia 23.8166
lfoot -9.58037 2.8285
ltoes -2.0316
489
root 0.520242 17.6399 5.23496 6.83854 1.57523 -1.90125
lowerback 1.48136 -0.197666 -0.118436
upperback 2.46681 -0.291028 2.12766
thorax 1.7101 -0.168703 2.24927
lowerneck -14.2897 -0.156398 -1.62477
upperneck 9.60118 -2.9581e-005 0.874265
head 5.2213 0.00158442 0.536828
rclavicle 4.67144e-015 -1.98785e-015
rhumerus -23.8176 -18.9749 -79.6417
rradius 20.4504
rwrist 36.192
rhand -21.3433 -26.8601
rfingers 7.12502
rthumb 5.04283 -56.7801
lclavicle 4.67144e-015 -1.98785e-015
lhumerus -23.5641 5.95211 89.0963
lradius 11.2082
lwrist -9.501
lhand -25.4156 -4.73416
lfingers 7.12502
lthumb 1.11013 25.2427
rfemur -18.6821 -0.55003 20.9195
rtibia 24.8606
rfoot -11.5178 -4.18625
rtoes 11.3881
lfemur -19.364 4.56269 -18.0915
ltibia 23.7713
lfoot -9.59769 2.80183
ltoes -2.09506
490
root 0.516853 17.6411 5.24563 6.84395 1.66977 -1.88841
lowerback 1.44719 -0.20528 -0.13193
upperback 2.44961 -0.301034 2.11066
thorax 1.71195 -0.173669 2.23923
lowerneck -14.3902 -0.1688 -1.69131
upperneck 9.38653 -0.00946289 0.939245
head 5.17065 -1.67949e-005 0.566836
rclavicle -9.14409e-015 1.59028e-014
rhumerus -23.673 -18.9968 -79.6953
rradius 20.4522
rwrist 36.2026
rhand -21.3355 -26.879
rfingers 7.12502
rthumb 5.05045 -56.7989
lclavicle -9.14409e-015 1.59028e-014
lhumerus -23.5085 7.13001 88.4935
lradius 10.8521
lwrist -10.9716
lhand -25.1439 -4.47172
lfingers 7.12502
lthumb 1.37258 25.5036
rfemur -18.6241 -0.586269 20.9205
rtibia 24.8373
rfoot -11.5479 -4.2627
rtoes 11.2974
lfemur -19.317 4.53584 -18.0916
ltibia 23.7197
lfoot -9.60928 2.78341
ltoes -2.16445
491
root 0.51348 17.6424 5.25593 6.85478 1.76285 -1.86928
lowerback 1.40837 -0.214569 -0.150763
upperback 2.43082 -0.31328 2.09197
thorax 1.71488 -0.17983 2.23043
lowerneck -14.488 -0.181443 -1.75382
upperneck 9.18785 -0.0195312 1.00179
head 5.12459 -0.00197276 0.595381
rclavicle 3.77691e-015 -3.85642e-014
rhumerus -23.5253 -19.0355 -79.7535
rradius 20.4458
rwrist 36.2299
rhand -21.3231 -26.8887
rfingers 7.12502
rthumb 5.06238 -56.8082
lclavicle 3.77691e-015 -3.85642e-014
lhumerus -23.4521 8.28105 87.9011
lradius 10.5252
lwrist -12.4119
lhand -24.953 -4.26361
lfingers 7.12502
lthumb 1.55696 25.7105
rfemur -18.5722 -0.622964 20.9146
rtibia 24.8116
rfoot -11.5749 -4.33679
rtoes 11.2235
lfemur -19.2739 4.50783 -18.0989
ltibia 23.6628
lfoot -9.61788 2.76536
ltoes -2.22883
